<?xml version="1.0" encoding="UTF-8" standalone="no"?>
<svg viewBox="0 0 200 200" width="100%" height="100%" style="max-width: 400px;" version="1.1" id="svg5" sodipodi:docname="d-dao.svg" inkscape:version="1.3.2 (091e20e, 2023-11-25)"
   xmlns:inkscape="http://www.inkscape.org/namespaces/inkscape"
   xmlns:sodipodi="http://sodipodi.sourceforge.net/DTD/sodipodi-0.dtd"
   xmlns="http://www.w3.org/2000/svg"
   xmlns:svg="http://www.w3.org/2000/svg">
   <sodipodi:namedview id="namedview5" pagecolor="#ffffff" bordercolor="#000000" borderopacity="0.25" inkscape:showpageshadow="2" inkscape:pageopacity="0.0" inkscape:pagecheckerboard="0" inkscape:deskcolor="#d1d1d1" inkscape:zoom="1.18" inkscape:cx="100.84746" inkscape:cy="100.42373" inkscape:window-width="1440" inkscape:window-height="786" inkscape:window-x="0" inkscape:window-y="30" inkscape:window-maximized="1" inkscape:current-layer="svg5" />
   <defs id="defs1">
      <style id="style1">
      .chou { fill: none; stroke: #333333; stroke-width: 8; stroke-linecap: round; stroke-linejoin: round; }
      .long { fill: none; stroke: #E63946; stroke-width: 8; stroke-linecap: round; stroke-linejoin: round; }
      </style>
   </defs>
   <g transform="matrix(0.39738074,0,0,0.39738074,114.84411,66.939893)" id="g4">
      <path d="M 38.62642,0.50927058 C 13.66512,4.4383596 -6.5680699,31.79403 14.66652,53.03013 c 5.9747,5.9751 26.2695,9.6984 24.7269,19.0401 -2.3753,14.3844 -22.1645,9.475 -31.7669999,11.2284 -4.92801,0.8999 -9.25956,5.5238 -7.25308601,10.7284 4.72890601,12.2662 24.01618591,3.2564 31.25308591,-0.9684 1.1631,-0.679 9.2953,-6.5813 10.1829,-4.966 1.3753,2.5029 -3.7951,7.4932 -5.2261,8.9375 -7.0068,7.0721 -15.4645,8.6531 -23.9375,12.9561 -2.4608,1.249 -5.5890299,3.683 -3.9328799,6.809 2.1320799,4.025 9.1809799,3.524 12.9135799,2.974 12.2271,-1.801 21.6874,-11.391 30,-19.699 2.0183,-2.0172 8.9853,-11.0509 12.1836,-6.6235 3.2345,4.4775 -5.5817,12.4155 -8.3534,15.0445 -11.1505,10.573 -25.1056,16.482 -38.8294,22.888 -3.8905,1.817 -9.8654399,5.313 -6.9575999,10.543 2.7165999,4.885 11.5471999,3.319 15.9567999,2.248 14.5767,-3.54 27.072,-15.163 36.7145,-26.1 1.5845,-1.797 9.5547,-13.212 12.1211,-11.793 6.5114,3.599 -5.489,19.189 -7.929,21.778 -16.0377,17.019 -41.2067,21.262 -54.547,41.015 -4.4106899,6.531 -16.0739599,29.783 -0.3596,30.872 10.8105,0.749 9.694,-21.142 16.0941,-27.833 19.4013,-20.281 67.0276,-32.32 60.5772,-69.039 -1.8566,-10.5689 -11.3722,-18.9652 -20.6713,-23.2076 -6.1083,-2.7866 -16.2204,-1.7417 -16.4082,-10.7337 -0.0938,-4.4923 5.1421,-4.3513 8.4082,-5.2146 8.7847,-2.322 16.8984,-6.5936 22.6096,-13.8449 23.0654,-29.2851 -16.9582,-53.7552704 -43.6096,-49.56015942 m 2,9.86115942 c 11.714,-1.6879904 25.9142,1.0496 33.6065,10.7145 12.5708,15.7943 -4.9663,31.6393 -20.6065,33.6959 -11.5882,1.5238 -24.7079,-0.6469 -32.7863,-9.7507 -14.0075999,-15.7858 3.6207,-32.3303 19.7863,-34.6597 z" fill="#f5f5f5" stroke="none" opacity="0.85" id="path7" style="fill:#d40000" inkscape:label="path3" />
   </g>
</svg>
