<svg xmlns="http://www.w3.org/2000/svg" width="345" height="240" viewBox="0 0 345 240" fill="none">
  <defs>
    <linearGradient id="cardBg" x1="0" y1="0" x2="345" y2="240" gradientUnits="userSpaceOnUse">
      <stop stop-color="#06061a"/>
      <stop offset="0.5" stop-color="#110a28"/>
      <stop offset="1" stop-color="#091018"/>
    </linearGradient>
    <linearGradient id="cardIcon" x1="250" y1="41" x2="250" y2="459" gradientUnits="userSpaceOnUse">
      <stop stop-color="#a855f7"/>
      <stop offset="1" stop-color="#7e22ce"/>
    </linearGradient>
    <linearGradient id="accentGrad" x1="0" y1="0" x2="1" y2="0">
      <stop stop-color="#818cf8"/>
      <stop offset="0.5" stop-color="#a78bfa"/>
      <stop offset="1" stop-color="#34d399"/>
    </linearGradient>
    <linearGradient id="dividerGrad" x1="80" y1="0" x2="265" y2="0" gradientUnits="userSpaceOnUse">
      <stop stop-color="#818cf8" stop-opacity="0"/>
      <stop offset="0.3" stop-color="#a78bfa" stop-opacity="0.3"/>
      <stop offset="0.5" stop-color="#c084fc" stop-opacity="0.4"/>
      <stop offset="0.7" stop-color="#a78bfa" stop-opacity="0.3"/>
      <stop offset="1" stop-color="#34d399" stop-opacity="0"/>
    </linearGradient>
    <linearGradient id="glowTop" x1="172" y1="0" x2="172" y2="100" gradientUnits="userSpaceOnUse">
      <stop stop-color="#a855f7" stop-opacity="0.08"/>
      <stop offset="1" stop-color="#a855f7" stop-opacity="0"/>
    </linearGradient>
    <filter id="iconGlow">
      <feGaussianBlur stdDeviation="3" result="glow"/>
      <feComposite in="SourceGraphic" in2="glow" operator="over"/>
    </filter>
  </defs>

  <!-- Background -->
  <rect width="345" height="240" fill="url(#cardBg)"/>

  <!-- Ambient glow -->
  <ellipse cx="172" cy="50" rx="140" ry="50" fill="url(#glowTop)"/>

  <!-- Brand row: icon + DUKI side by side -->
  <g transform="translate(112, 22)">
    <!-- Compact favicon icon -->
    <g transform="scale(0.09)" filter="url(#iconGlow)">
      <path fill-rule="evenodd" clip-rule="evenodd" d="M250 475C374.264 475 475 374.264 475 250C475 125.736 374.264 25 250 25C125.736 25 25 125.736 25 250C25 374.264 125.736 475 250 475ZM250 500C388.071 500 500 388.071 500 250C500 111.929 388.071 0 250 0C111.929 0 0 111.929 0 250C0 388.071 111.929 500 250 500Z" fill="#9333ea"/>
      <circle cx="250" cy="250" r="209" fill="url(#cardIcon)"/>
      <path fill-rule="evenodd" clip-rule="evenodd" d="M250 459C365.428 459 459 365.428 459 250C459 134.572 365.428 41 250 41C134.572 41 41 134.572 41 250C41 365.428 134.572 459 250 459ZM250 475C374.264 475 475 374.264 475 250C475 125.736 374.264 25 250 25C125.736 25 25 125.736 25 250C25 374.264 125.736 475 250 475Z" fill="#9333ea"/>
      <g transform="translate(120, 55) scale(0.35)">
        <path d="M298 950l0-30 111 0q84 0 155-27.5 71-27.5 122.5-77.5 51.5-50 80-118 28.5-68 28.5-149 0-81-28.5-149-28.5-68-80-118-51.5-50-122.5-77.5-71-27.5-155-27.5l-111 0 0-30 111 0 0 0q91 0 167 29.5 76 29.5 132 83.5 56 54 87 127.5 31 73.5 31 161.5 0 88-31 161.5-31 73.5-87 127.5-56 54-132 83.5-76 29.5-167 29.5l0 0-111 0z m-198-519l0-285 30 0 0 285-30 0z m66 0l0-285 30 0 0 285-30 0z m66 0l0-285 30 0 0 285-30 0z m66 453l0-30 111 0q94 0 166-39 72-39 113-108.5 41-69.5 41-158.5 0-90-41-159-41-69-113-108-72-39-166-39l-111 0 0-30 111 0 0 0q103 0 182 43 79 43 124 119 45 76 45 174 0 98-45 174-45 76-124 119-79 43-182 43l0 0-111 0z m0-66l0-30 111 0q76 0 132.5-30 56.5-30 88.5-84.5 32-54.5 32-125.5 0-72-32-126-32-54-88.5-84-56.5-30-132.5-30l-111 0 0-30 111 0 0 0q84 0 148 34 64 34 100 95 36 61 36 141 0 80-36 141-36 61-100 95-64 34-148 34l0 0-111 0z m-288-321l0-30 399 0 0 30-399 0z m0 66l0-30 399 0 0 30-399 0z m0 66l0-30 399 0 0 30-399 0z m90 321l0-285 30 0 0 285-30 0z m66 0l0-285 30 0 0 285-30 0z m66 0l0-285 30 0 0 285-30 0z" fill="#FFD700" stroke="#FFD700" stroke-width="30" stroke-linejoin="round"/>
      </g>
    </g>
    <!-- DUKI title next to icon -->
    <text x="54" y="34" font-family="Inter, -apple-system, sans-serif" font-size="32" font-weight="800" fill="#f0f0f8" letter-spacing="0.06em">DUKI</text>
  </g>

  <!-- Divider -->
  <line x1="80" y1="80" x2="265" y2="80" stroke="url(#dividerGrad)" stroke-width="1"/>

  <!-- CTA: Claim Your -->
  <text x="172.5" y="104" font-family="Inter, -apple-system, sans-serif" font-size="12" font-weight="400" fill="#b0b0cc" text-anchor="middle" letter-spacing="0.04em">Claim Your</text>
  <!-- Decentralized Universal Kindness Income -->
  <text x="172.5" y="128" font-family="Inter, -apple-system, sans-serif" font-size="16" font-weight="700" fill="url(#accentGrad)" text-anchor="middle" letter-spacing="0.02em">Decentralized Universal</text>
  <text x="172.5" y="152" font-family="Inter, -apple-system, sans-serif" font-size="16" font-weight="700" fill="url(#accentGrad)" text-anchor="middle" letter-spacing="0.02em">Kindness Income</text>

  <!-- Bottom divider -->
  <line x1="120" y1="170" x2="225" y2="170" stroke="url(#dividerGrad)" stroke-width="0.5" opacity="0.4"/>

  <!-- Advocated By footer -->
  <text x="172.5" y="194" font-family="Inter, -apple-system, sans-serif" font-size="7" fill="#505068" letter-spacing="0.1em" text-anchor="middle">ADVOCATED BY</text>
  <text x="172.5" y="214" font-family="Inter, -apple-system, sans-serif" font-size="10.5" font-weight="600" fill="#7878a0" letter-spacing="0.06em" text-anchor="middle">ALLLIVESMATTER.WORLD</text>
</svg>
