<svg xmlns="http://www.w3.org/2000/svg"
  xmlns:xlink="http://www.w3.org/1999/xlink" width="500" height="500" viewBox="0 0 500 500">
  <defs>
    <linearGradient id="bg" x1="0" y1="0" x2="500" y2="500" gradientUnits="userSpaceOnUse">
      <stop stop-color="#1a0533"/>
      <stop offset="1" stop-color="#0f0a1e"/>
    </linearGradient>
    <linearGradient id="duki-bg" x1="0" y1="0" x2="0" y2="1">
      <stop stop-color="#a855f7"/>
      <stop offset="1" stop-color="#7e22ce"/>
    </linearGradient>
    <linearGradient id="gold" x1="0" y1="0" x2="1" y2="1">
      <stop stop-color="#FFD700"/>
      <stop offset="1" stop-color="#F0B000"/>
    </linearGradient>
  </defs>

  <!-- Dark background -->
  <rect width="500" height="500" rx="24" fill="url(#bg)"/>
  <rect x="2" y="2" width="496" height="496" rx="22" fill="none" stroke="#9333ea" stroke-width="1.5" opacity="0.3"/>

  <!-- DUKI logo (centered) -->
  <g transform="translate(250, 150) scale(0.16)">
    <circle cx="0" cy="0" r="250" fill="url(#duki-bg)"/>
    <circle cx="0" cy="0" r="225" fill="none" stroke="#d8b4fe" stroke-width="8" opacity="0.3"/>
    <g transform="translate(-130, -195) scale(0.35)">
      <path d="M298 950l0-30 111 0q84 0 155-27.5 71-27.5 122.5-77.5 51.5-50 80-118 28.5-68 28.5-149 0-81-28.5-149-28.5-68-80-118-51.5-50-122.5-77.5-71-27.5-155-27.5l-111 0 0-30 111 0 0 0q91 0 167 29.5 76 29.5 132 83.5 56 54 87 127.5 31 73.5 31 161.5 0 88-31 161.5-31 73.5-87 127.5-56 54-132 83.5-76 29.5-167 29.5l0 0-111 0z m-198-519l0-285 30 0 0 285-30 0z m66 0l0-285 30 0 0 285-30 0z m66 0l0-285 30 0 0 285-30 0z m66 453l0-30 111 0q94 0 166-39 72-39 113-108.5 41-69.5 41-158.5 0-90-41-159-41-69-113-108-72-39-166-39l-111 0 0-30 111 0 0 0q103 0 182 43 79 43 124 119 45 76 45 174 0 98-45 174-45 76-124 119-79 43-182 43l0 0-111 0z m0-66l0-30 111 0q76 0 132.5-30 56.5-30 88.5-84.5 32-54.5 32-125.5 0-72-32-126-32-54-88.5-84-56.5-30-132.5-30l-111 0 0-30 111 0 0 0q84 0 148 34 64 34 100 95 36 61 36 141 0 80-36 141-36 61-100 95-64 34-148 34l0 0-111 0z m-288-321l0-30 399 0 0 30-399 0z m0 66l0-30 399 0 0 30-399 0z m0 66l0-30 399 0 0 30-399 0z m90 321l0-285 30 0 0 285-30 0z m66 0l0-285 30 0 0 285-30 0z m66 0l0-285 30 0 0 285-30 0z" fill="#FFD700" stroke="#FFD700" stroke-width="30" stroke-linejoin="round"/>
    </g>
  </g>

  <!-- Duker News -->
  <text x="250" y="235" font-family="monospace" font-size="13" fill="#9333ea" text-anchor="middle" letter-spacing="2">DUKER NEWS</text>

  <!-- ★ USERNAME -->
  <text x="250" y="320" font-family="monospace" font-size="20" font-weight="bold" fill="url(#gold)" text-anchor="middle">@DUKER NEWS</text>

  <!-- ★ #1 · X Layer -->
  <text x="250" y="380" font-family="monospace" font-size="16" fill="#d8b4fe" text-anchor="middle">#1 · X Layer</text>
</svg>
